<?xml version="1.0" standalone="no"?>
<svg xmlns="http://www.w3.org/2000/svg" xmlns:xlink="http://www.w3.org/1999/xlink" width="2600" height="1900">
  <title>koudaisai</title>
  
  <text x="356" y="685">1</text>
<rect x="278" y="648" width="183" height="48" fill="black" stroke="rgb(146,208,80)" fill-opacity="0.0" />

<text x="536" y="685">2</text>
<rect x="458" y="648" width="183" height="48" fill="black" stroke="rgb(146,208,80)" fill-opacity="0.0" />

<text x="966" y="355">3</text>
<rect x="878" y="241" width="203" height="203" fill="black" stroke="rgb(255,0,0)" fill-opacity="0.0" />

<text x="1155" y="434">4</text>
<rect x="1078" y="396" width="183" height="48" fill="black" stroke="rgb(146,208,80)" fill-opacity="0.0" />

<text x="1336" y="365">5</text>
<rect x="1258" y="260" width="183" height="183" fill="black" stroke="rgb(255,0,0)" fill-opacity="0.0" />

<text x="1518" y="431">6</text>
<rect x="1438" y="395" width="183" height="48" fill="black" stroke="rgb(146,208,80)" fill-opacity="0.0" />

<text x="1655" y="406">7</text>
<rect x="1617" y="341" width="103" height="103" fill="black" stroke="rgb(255,0,0)" fill-opacity="0.0" />

<text x="1797" y="430">8</text>
<rect x="1718" y="394" width="183" height="48" fill="black" stroke="rgb(146,208,80)" fill-opacity="0.0" />

<text x="1975" y="432">9</text>
<rect x="1898" y="394" width="183" height="48" fill="black" stroke="rgb(146,208,80)" fill-opacity="0.0" />

<text x="2367" y="406">10</text>
<rect x="2177" y="241" width="403" height="303" fill="black" stroke="rgb(255,0,0)" fill-opacity="0.0" />

<text x="2406" y="695">11</text>
<rect x="2396" y="591" width="48" height="183" fill="black" stroke="rgb(146,208,80)" fill-opacity="0.0" />

<text x="2407" y="874">12</text>
<rect x="2396" y="770" width="48" height="184" fill="black" stroke="rgb(146,208,80)" fill-opacity="0.0" />

<text x="2406" y="1047">13</text>
<rect x="2396" y="944" width="48" height="183" fill="black" stroke="rgb(146,208,80)" fill-opacity="0.0" />

<text x="2407" y="1229">14</text>
<rect x="2397" y="1124" width="48" height="183" fill="black" stroke="rgb(146,208,80)" fill-opacity="0.0" />

<text x="2406" y="1409">15</text>
<rect x="2399" y="1304" width="48" height="183" fill="black" stroke="rgb(146,208,80)" fill-opacity="0.0" />

<text x="2416" y="1706">16</text>
<rect x="2278" y="1541" width="303" height="303" fill="black" stroke="rgb(255,0,0)" fill-opacity="0.0" />

<text x="2158" y="1806">17</text>
<rect x="2120" y="1741" width="103" height="103" fill="black" stroke="rgb(255,0,0)" fill-opacity="0.0" />

<text x="2014" y="1678">18</text>
<rect x="1936" y="1641" width="183" height="48" fill="black" stroke="rgb(146,208,80)" fill-opacity="0.0" />

<text x="1835" y="1677">19</text>
<rect x="1758" y="1640" width="183" height="48" fill="black" stroke="rgb(146,208,80)" fill-opacity="0.0" />

<text x="1656" y="1677">20</text>
<rect x="1578" y="1640" width="183" height="48" fill="black" stroke="rgb(146,208,80)" fill-opacity="0.0" />

<text x="1478" y="1677">21</text>
<rect x="1400" y="1640" width="183" height="48" fill="black" stroke="rgb(146,208,80)" fill-opacity="0.0" />

<text x="1298" y="1678">22</text>
<rect x="1220" y="1641" width="183" height="48" fill="black" stroke="rgb(146,208,80)" fill-opacity="0.0" />

<text x="1188" y="1747">23</text>
<rect x="1178" y="1641" width="48" height="183" fill="black" stroke="rgb(146,208,80)" fill-opacity="0.0" />

<text x="1066" y="1755">24</text>
<rect x="978" y="1641" width="203" height="203" fill="black" stroke="rgb(255,0,0)" fill-opacity="0.0" />

<text x="866" y="1763">25</text>
<rect x="778" y="1641" width="203" height="203" fill="black" stroke="rgb(255,0,0)" fill-opacity="0.0" />

<text x="516" y="1613">26</text>
<rect x="278" y="1341" width="503" height="503" fill="black" stroke="rgb(255,0,0)" fill-opacity="0.0" />

<text x="517" y="1308">27</text>
<rect x="478" y="1241" width="103" height="103" fill="black" stroke="rgb(255,0,0)" fill-opacity="0.0" />

<text x="545" y="1165">28</text>
<rect x="535" y="1061" width="48" height="183" fill="black" stroke="rgb(146,208,80)" fill-opacity="0.0" />

<text x="516" y="924">29</text>
<rect x="378" y="759" width="303" height="303" fill="black" stroke="rgb(255,0,0)" fill-opacity="0.0" />

<text x="1173" y="835">30</text>
<rect x="1098" y="798" width="183" height="48" fill="black" stroke="rgb(146,208,80)" fill-opacity="0.0" />

<text x="1356" y="832">31</text>
<rect x="1278" y="798" width="183" height="48" fill="black" stroke="rgb(146,208,80)" fill-opacity="0.0" />

<text x="1496" y="862">32</text>
<rect x="1458" y="797" width="104" height="103" fill="black" stroke="rgb(255,0,0)" fill-opacity="0.0" />

<text x="1595" y="860">33</text>
<rect x="1557" y="797" width="103" height="103" fill="black" stroke="rgb(255,0,0)" fill-opacity="0.0" />

<text x="1735" y="834">34</text>
<rect x="1658" y="797" width="183" height="48" fill="black" stroke="rgb(146,208,80)" fill-opacity="0.0" />

<text x="1848" y="945">35</text>
<rect x="1838" y="841" width="48" height="183" fill="black" stroke="rgb(146,208,80)" fill-opacity="0.0" />

<text x="1848" y="1124">36</text>
<rect x="1837" y="1018" width="48" height="183" fill="black" stroke="rgb(146,208,80)" fill-opacity="0.0" />

<text x="1640" y="1188">37</text>
<rect x="1563" y="1153" width="183" height="48" fill="black" stroke="rgb(146,208,80)" fill-opacity="0.0" />

<text x="1463" y="1191">38</text>
<rect x="1384" y="1153" width="184" height="48" fill="black" stroke="rgb(146,208,80)" fill-opacity="0.0" />

<text x="1280" y="1191">39</text>
<rect x="1203" y="1153" width="183" height="48" fill="black" stroke="rgb(146,208,80)" fill-opacity="0.0" />

<text x="1102" y="1191">40</text>
<rect x="1024" y="1153" width="183" height="48" fill="black" stroke="rgb(146,208,80)" fill-opacity="0.0" />

<text x="987" y="1076">41</text>
<rect x="977" y="974" width="48" height="183" fill="black" stroke="rgb(146,208,80)" fill-opacity="0.0" />

<text x="987" y="901">42</text>
<rect x="977" y="798" width="48" height="183" fill="black" stroke="rgb(146,208,80)" fill-opacity="0.0" />

</svg>
